<mxfile host="app.diagrams.net" modified="2023-03-02T06:57:31.741Z" agent="5.0 (Macintosh; Intel Mac OS X 10_15_7) AppleWebKit/537.36 (KHTML, like Gecko) Chrome/109.0.0.0 Safari/537.36" etag="oeu_d9h-sRhZ9PeYqYw1" version="20.8.23" type="github">
  <diagram name="第 1 页" id="dUVvVyLjPzuyjLZR24LQ">
    <mxGraphModel dx="954" dy="562" grid="1" gridSize="10" guides="1" tooltips="1" connect="1" arrows="1" fold="1" page="1" pageScale="1" pageWidth="1100" pageHeight="850" math="0" shadow="0">
      <root>
        <mxCell id="0" />
        <mxCell id="1" parent="0" />
        <mxCell id="pnnKYxnlThpWzgWn_VIT-1" value="应用客户端" style="shape=umlLifeline;perimeter=lifelinePerimeter;whiteSpace=wrap;html=1;container=1;collapsible=0;recursiveResize=0;outlineConnect=0;rounded=1;shadow=0;comic=0;labelBackgroundColor=none;strokeWidth=1;fontFamily=Verdana;fontSize=12;align=center;" vertex="1" parent="1">
          <mxGeometry x="270" y="90" width="100" height="630" as="geometry" />
        </mxCell>
        <mxCell id="pnnKYxnlThpWzgWn_VIT-2" style="edgeStyle=none;rounded=0;orthogonalLoop=1;jettySize=auto;html=1;dashed=1;elbow=vertical;" edge="1" parent="pnnKYxnlThpWzgWn_VIT-1" source="pnnKYxnlThpWzgWn_VIT-3" target="pnnKYxnlThpWzgWn_VIT-1">
          <mxGeometry relative="1" as="geometry" />
        </mxCell>
        <mxCell id="pnnKYxnlThpWzgWn_VIT-3" value="" style="html=1;points=[];perimeter=orthogonalPerimeter;rounded=0;shadow=0;comic=0;labelBackgroundColor=none;strokeWidth=1;fontFamily=Verdana;fontSize=12;align=center;" vertex="1" parent="pnnKYxnlThpWzgWn_VIT-1">
          <mxGeometry x="45" y="100" width="10" height="530" as="geometry" />
        </mxCell>
        <mxCell id="pnnKYxnlThpWzgWn_VIT-4" value="应用服务端&lt;br style=&quot;border-color: var(--border-color);&quot;&gt;（教育平台）" style="shape=umlLifeline;perimeter=lifelinePerimeter;whiteSpace=wrap;html=1;container=1;collapsible=0;recursiveResize=0;outlineConnect=0;rounded=1;shadow=0;comic=0;labelBackgroundColor=none;strokeWidth=1;fontFamily=Verdana;fontSize=12;align=center;" vertex="1" parent="1">
          <mxGeometry x="430" y="90" width="100" height="630" as="geometry" />
        </mxCell>
        <mxCell id="pnnKYxnlThpWzgWn_VIT-5" value="" style="html=1;points=[];perimeter=orthogonalPerimeter;rounded=0;shadow=0;comic=0;labelBackgroundColor=none;strokeWidth=1;fontFamily=Verdana;fontSize=12;align=center;" vertex="1" parent="pnnKYxnlThpWzgWn_VIT-4">
          <mxGeometry x="45" y="120" width="10" height="30" as="geometry" />
        </mxCell>
        <mxCell id="pnnKYxnlThpWzgWn_VIT-6" style="edgeStyle=none;rounded=0;orthogonalLoop=1;jettySize=auto;html=1;elbow=vertical;" edge="1" parent="pnnKYxnlThpWzgWn_VIT-4" source="pnnKYxnlThpWzgWn_VIT-7" target="pnnKYxnlThpWzgWn_VIT-4">
          <mxGeometry relative="1" as="geometry" />
        </mxCell>
        <mxCell id="pnnKYxnlThpWzgWn_VIT-7" value="" style="html=1;points=[];perimeter=orthogonalPerimeter;rounded=0;shadow=0;comic=0;labelBackgroundColor=none;strokeWidth=1;fontFamily=Verdana;fontSize=12;align=center;" vertex="1" parent="pnnKYxnlThpWzgWn_VIT-4">
          <mxGeometry x="45" y="290" width="10" height="285" as="geometry" />
        </mxCell>
        <mxCell id="pnnKYxnlThpWzgWn_VIT-12" value="用户" style="shape=umlLifeline;perimeter=lifelinePerimeter;whiteSpace=wrap;html=1;container=1;collapsible=0;recursiveResize=0;outlineConnect=0;rounded=1;shadow=0;comic=0;labelBackgroundColor=none;strokeWidth=1;fontFamily=Verdana;fontSize=12;align=center;" vertex="1" parent="1">
          <mxGeometry x="110" y="90" width="100" height="580" as="geometry" />
        </mxCell>
        <mxCell id="pnnKYxnlThpWzgWn_VIT-13" value="" style="html=1;points=[];perimeter=orthogonalPerimeter;rounded=0;shadow=0;comic=0;labelBackgroundColor=none;strokeWidth=1;fontFamily=Verdana;fontSize=12;align=center;" vertex="1" parent="pnnKYxnlThpWzgWn_VIT-12">
          <mxGeometry x="45" y="100" width="10" height="440" as="geometry" />
        </mxCell>
        <mxCell id="pnnKYxnlThpWzgWn_VIT-14" value="打开应用" style="html=1;verticalAlign=bottom;endArrow=block;entryX=0;entryY=0;labelBackgroundColor=none;fontFamily=Verdana;fontSize=12;edgeStyle=elbowEdgeStyle;elbow=vertical;" edge="1" parent="1" source="pnnKYxnlThpWzgWn_VIT-13" target="pnnKYxnlThpWzgWn_VIT-3">
          <mxGeometry relative="1" as="geometry">
            <mxPoint x="230" y="200" as="sourcePoint" />
          </mxGeometry>
        </mxCell>
        <mxCell id="pnnKYxnlThpWzgWn_VIT-15" value="检查用户状态" style="html=1;verticalAlign=bottom;endArrow=block;entryX=0;entryY=0;labelBackgroundColor=none;fontFamily=Verdana;fontSize=12;edgeStyle=elbowEdgeStyle;elbow=vertical;" edge="1" parent="1" source="pnnKYxnlThpWzgWn_VIT-3" target="pnnKYxnlThpWzgWn_VIT-5">
          <mxGeometry relative="1" as="geometry">
            <mxPoint x="380" y="210" as="sourcePoint" />
          </mxGeometry>
        </mxCell>
        <mxCell id="pnnKYxnlThpWzgWn_VIT-16" value="教育号" style="shape=umlLifeline;perimeter=lifelinePerimeter;whiteSpace=wrap;html=1;container=1;collapsible=0;recursiveResize=0;outlineConnect=0;rounded=1;shadow=0;comic=0;labelBackgroundColor=none;strokeWidth=1;fontFamily=Verdana;fontSize=12;align=center;" vertex="1" parent="1">
          <mxGeometry x="620" y="90" width="100" height="580" as="geometry" />
        </mxCell>
        <mxCell id="pnnKYxnlThpWzgWn_VIT-17" style="edgeStyle=none;rounded=0;orthogonalLoop=1;jettySize=auto;html=1;" edge="1" parent="pnnKYxnlThpWzgWn_VIT-16" source="pnnKYxnlThpWzgWn_VIT-18" target="pnnKYxnlThpWzgWn_VIT-20">
          <mxGeometry relative="1" as="geometry" />
        </mxCell>
        <mxCell id="pnnKYxnlThpWzgWn_VIT-18" value="" style="html=1;points=[];perimeter=orthogonalPerimeter;rounded=0;shadow=0;comic=0;labelBackgroundColor=none;strokeWidth=1;fontFamily=Verdana;fontSize=12;align=center;" vertex="1" parent="pnnKYxnlThpWzgWn_VIT-16">
          <mxGeometry x="45" y="160" width="10" height="110" as="geometry" />
        </mxCell>
        <mxCell id="pnnKYxnlThpWzgWn_VIT-19" value="" style="edgeStyle=none;rounded=0;orthogonalLoop=1;jettySize=auto;html=1;" edge="1" parent="pnnKYxnlThpWzgWn_VIT-16" source="pnnKYxnlThpWzgWn_VIT-20" target="pnnKYxnlThpWzgWn_VIT-18">
          <mxGeometry relative="1" as="geometry" />
        </mxCell>
        <mxCell id="pnnKYxnlThpWzgWn_VIT-20" value="" style="html=1;points=[];perimeter=orthogonalPerimeter;rounded=0;shadow=0;comic=0;labelBackgroundColor=none;strokeWidth=1;fontFamily=Verdana;fontSize=12;align=center;" vertex="1" parent="pnnKYxnlThpWzgWn_VIT-16">
          <mxGeometry x="55" y="200" width="10" height="60" as="geometry" />
        </mxCell>
        <mxCell id="pnnKYxnlThpWzgWn_VIT-21" value="" style="endArrow=classic;html=1;rounded=0;exitX=1;exitY=0.355;exitDx=0;exitDy=0;exitPerimeter=0;edgeStyle=entityRelationEdgeStyle;elbow=vertical;" edge="1" parent="pnnKYxnlThpWzgWn_VIT-16" source="pnnKYxnlThpWzgWn_VIT-18" target="pnnKYxnlThpWzgWn_VIT-20">
          <mxGeometry width="50" height="50" relative="1" as="geometry">
            <mxPoint x="-200" y="380" as="sourcePoint" />
            <mxPoint x="70" y="300" as="targetPoint" />
          </mxGeometry>
        </mxCell>
        <mxCell id="pnnKYxnlThpWzgWn_VIT-22" value="回调地址" style="edgeLabel;html=1;align=center;verticalAlign=middle;resizable=0;points=[];" vertex="1" connectable="0" parent="pnnKYxnlThpWzgWn_VIT-21">
          <mxGeometry x="-0.0073" relative="1" as="geometry">
            <mxPoint as="offset" />
          </mxGeometry>
        </mxCell>
        <mxCell id="pnnKYxnlThpWzgWn_VIT-23" value="" style="html=1;points=[];perimeter=orthogonalPerimeter;rounded=0;shadow=0;comic=0;labelBackgroundColor=none;strokeWidth=1;fontFamily=Verdana;fontSize=12;align=center;" vertex="1" parent="pnnKYxnlThpWzgWn_VIT-16">
          <mxGeometry x="45" y="310" width="10" height="80" as="geometry" />
        </mxCell>
        <mxCell id="pnnKYxnlThpWzgWn_VIT-24" value="" style="html=1;points=[];perimeter=orthogonalPerimeter;rounded=0;shadow=0;comic=0;labelBackgroundColor=none;strokeWidth=1;fontFamily=Verdana;fontSize=12;align=center;" vertex="1" parent="pnnKYxnlThpWzgWn_VIT-16">
          <mxGeometry x="45" y="410" width="10" height="100" as="geometry" />
        </mxCell>
        <mxCell id="pnnKYxnlThpWzgWn_VIT-27" style="rounded=0;orthogonalLoop=1;jettySize=auto;html=1;dashed=1;" edge="1" parent="1" source="pnnKYxnlThpWzgWn_VIT-5" target="pnnKYxnlThpWzgWn_VIT-1">
          <mxGeometry relative="1" as="geometry">
            <mxPoint x="480" y="250" as="sourcePoint" />
            <Array as="points">
              <mxPoint x="390" y="230" />
            </Array>
          </mxGeometry>
        </mxCell>
        <mxCell id="pnnKYxnlThpWzgWn_VIT-28" value="用户未登录" style="edgeLabel;html=1;align=center;verticalAlign=middle;resizable=0;points=[];" vertex="1" connectable="0" parent="pnnKYxnlThpWzgWn_VIT-27">
          <mxGeometry x="-0.3076" y="1" relative="1" as="geometry">
            <mxPoint as="offset" />
          </mxGeometry>
        </mxCell>
        <mxCell id="pnnKYxnlThpWzgWn_VIT-29" style="rounded=0;orthogonalLoop=1;jettySize=auto;html=1;exitX=0.889;exitY=0.152;exitDx=0;exitDy=0;exitPerimeter=0;" edge="1" parent="1" source="pnnKYxnlThpWzgWn_VIT-3" target="pnnKYxnlThpWzgWn_VIT-16">
          <mxGeometry relative="1" as="geometry">
            <mxPoint x="635" y="270" as="targetPoint" />
          </mxGeometry>
        </mxCell>
        <mxCell id="pnnKYxnlThpWzgWn_VIT-30" value="用户登录，携带应用id(appid)" style="edgeLabel;html=1;align=center;verticalAlign=middle;resizable=0;points=[];" vertex="1" connectable="0" parent="pnnKYxnlThpWzgWn_VIT-29">
          <mxGeometry x="0.0811" y="1" relative="1" as="geometry">
            <mxPoint y="1" as="offset" />
          </mxGeometry>
        </mxCell>
        <mxCell id="pnnKYxnlThpWzgWn_VIT-32" style="rounded=0;orthogonalLoop=1;jettySize=auto;html=1;elbow=vertical;dashed=1;exitX=-0.216;exitY=0.743;exitDx=0;exitDy=0;exitPerimeter=0;" edge="1" parent="1" source="pnnKYxnlThpWzgWn_VIT-18" target="pnnKYxnlThpWzgWn_VIT-1">
          <mxGeometry relative="1" as="geometry" />
        </mxCell>
        <mxCell id="pnnKYxnlThpWzgWn_VIT-33" value="回调地址获取code、appid、state" style="edgeLabel;html=1;align=center;verticalAlign=middle;resizable=0;points=[];" vertex="1" connectable="0" parent="pnnKYxnlThpWzgWn_VIT-32">
          <mxGeometry x="0.1533" relative="1" as="geometry">
            <mxPoint as="offset" />
          </mxGeometry>
        </mxCell>
        <mxCell id="pnnKYxnlThpWzgWn_VIT-34" style="rounded=0;orthogonalLoop=1;jettySize=auto;html=1;elbow=vertical;exitX=1.1;exitY=0.383;exitDx=0;exitDy=0;exitPerimeter=0;" edge="1" parent="1" source="pnnKYxnlThpWzgWn_VIT-3" target="pnnKYxnlThpWzgWn_VIT-4">
          <mxGeometry relative="1" as="geometry">
            <mxPoint x="330" y="450" as="sourcePoint" />
            <mxPoint x="470" y="450" as="targetPoint" />
          </mxGeometry>
        </mxCell>
        <mxCell id="pnnKYxnlThpWzgWn_VIT-35" value="code验证" style="edgeLabel;html=1;align=center;verticalAlign=middle;resizable=0;points=[];" vertex="1" connectable="0" parent="pnnKYxnlThpWzgWn_VIT-34">
          <mxGeometry x="0.1391" relative="1" as="geometry">
            <mxPoint as="offset" />
          </mxGeometry>
        </mxCell>
        <mxCell id="pnnKYxnlThpWzgWn_VIT-36" style="rounded=0;orthogonalLoop=1;jettySize=auto;html=1;elbow=vertical;exitX=0.995;exitY=0.111;exitDx=0;exitDy=0;exitPerimeter=0;" edge="1" parent="1" source="pnnKYxnlThpWzgWn_VIT-7" target="pnnKYxnlThpWzgWn_VIT-16">
          <mxGeometry relative="1" as="geometry">
            <mxPoint x="490" y="460" as="sourcePoint" />
            <mxPoint x="634.4200000000001" y="409.84000000000003" as="targetPoint" />
          </mxGeometry>
        </mxCell>
        <mxCell id="pnnKYxnlThpWzgWn_VIT-37" value="code换取access_token" style="edgeLabel;html=1;align=center;verticalAlign=middle;resizable=0;points=[];" vertex="1" connectable="0" parent="pnnKYxnlThpWzgWn_VIT-36">
          <mxGeometry x="0.2427" y="-1" relative="1" as="geometry">
            <mxPoint x="-21" y="-1" as="offset" />
          </mxGeometry>
        </mxCell>
        <mxCell id="pnnKYxnlThpWzgWn_VIT-41" style="rounded=0;orthogonalLoop=1;jettySize=auto;html=1;elbow=vertical;dashed=1;" edge="1" parent="1" source="pnnKYxnlThpWzgWn_VIT-23" target="pnnKYxnlThpWzgWn_VIT-4">
          <mxGeometry relative="1" as="geometry">
            <mxPoint x="635.47" y="472.72" as="sourcePoint" />
            <mxPoint x="490" y="473" as="targetPoint" />
            <Array as="points">
              <mxPoint x="530" y="450" />
            </Array>
          </mxGeometry>
        </mxCell>
        <mxCell id="pnnKYxnlThpWzgWn_VIT-42" value="返回token" style="edgeLabel;html=1;align=center;verticalAlign=middle;resizable=0;points=[];" vertex="1" connectable="0" parent="pnnKYxnlThpWzgWn_VIT-41">
          <mxGeometry x="-0.3139" y="-1" relative="1" as="geometry">
            <mxPoint x="-18" as="offset" />
          </mxGeometry>
        </mxCell>
        <mxCell id="pnnKYxnlThpWzgWn_VIT-43" style="edgeStyle=none;rounded=0;orthogonalLoop=1;jettySize=auto;html=1;elbow=vertical;" edge="1" parent="1" target="pnnKYxnlThpWzgWn_VIT-16">
          <mxGeometry relative="1" as="geometry">
            <mxPoint x="490" y="510" as="sourcePoint" />
            <mxPoint x="640" y="509.9749999999999" as="targetPoint" />
          </mxGeometry>
        </mxCell>
        <mxCell id="pnnKYxnlThpWzgWn_VIT-44" value="用token查询用户" style="edgeLabel;html=1;align=center;verticalAlign=middle;resizable=0;points=[];" vertex="1" connectable="0" parent="pnnKYxnlThpWzgWn_VIT-43">
          <mxGeometry x="0.2645" relative="1" as="geometry">
            <mxPoint x="-13" as="offset" />
          </mxGeometry>
        </mxCell>
        <mxCell id="pnnKYxnlThpWzgWn_VIT-47" style="rounded=0;orthogonalLoop=1;jettySize=auto;html=1;elbow=vertical;dashed=1;exitX=0.1;exitY=0.41;exitDx=0;exitDy=0;exitPerimeter=0;entryX=0.9;entryY=0.561;entryDx=0;entryDy=0;entryPerimeter=0;" edge="1" parent="1" target="pnnKYxnlThpWzgWn_VIT-7" source="pnnKYxnlThpWzgWn_VIT-24">
          <mxGeometry relative="1" as="geometry">
            <mxPoint x="640" y="570" as="sourcePoint" />
            <mxPoint x="490" y="571" as="targetPoint" />
          </mxGeometry>
        </mxCell>
        <mxCell id="pnnKYxnlThpWzgWn_VIT-48" value="返回用户信息" style="edgeLabel;html=1;align=center;verticalAlign=middle;resizable=0;points=[];" vertex="1" connectable="0" parent="pnnKYxnlThpWzgWn_VIT-47">
          <mxGeometry x="-0.3139" y="-1" relative="1" as="geometry">
            <mxPoint x="-18" as="offset" />
          </mxGeometry>
        </mxCell>
        <mxCell id="pnnKYxnlThpWzgWn_VIT-49" style="rounded=0;orthogonalLoop=1;jettySize=auto;html=1;elbow=vertical;dashed=1;" edge="1" parent="1" target="pnnKYxnlThpWzgWn_VIT-1" source="pnnKYxnlThpWzgWn_VIT-7">
          <mxGeometry relative="1" as="geometry">
            <mxPoint x="480" y="610" as="sourcePoint" />
            <mxPoint x="330" y="680" as="targetPoint" />
            <Array as="points">
              <mxPoint x="350" y="580" />
            </Array>
          </mxGeometry>
        </mxCell>
        <mxCell id="pnnKYxnlThpWzgWn_VIT-50" value="登录完成，下发登录态" style="edgeLabel;html=1;align=center;verticalAlign=middle;resizable=0;points=[];" vertex="1" connectable="0" parent="pnnKYxnlThpWzgWn_VIT-49">
          <mxGeometry x="-0.3139" y="-1" relative="1" as="geometry">
            <mxPoint x="-18" y="-9" as="offset" />
          </mxGeometry>
        </mxCell>
      </root>
    </mxGraphModel>
  </diagram>
</mxfile>
